<mxfile host="app.diagrams.net" agent="Mozilla/5.0 (Windows NT 10.0; Win64; x64) AppleWebKit/537.36 (KHTML, like Gecko) Chrome/129.0.0.0 Safari/537.36" version="24.7.16">
  <diagram name="CDM - Xero" id="biNEu5IPAbZlqPAv1qww">
    <mxGraphModel dx="1290" dy="557" grid="1" gridSize="10" guides="1" tooltips="1" connect="1" arrows="1" fold="1" page="1" pageScale="1" pageWidth="827" pageHeight="1169" math="0" shadow="0">
      <root>
        <mxCell id="0" />
        <mxCell id="1" parent="0" />
        <mxCell id="cv5TxPR-ClBGW62HtCY0-9" value="Pengguna" style="shape=swimlane;whiteSpace=wrap;html=1;" vertex="1" parent="1">
          <mxGeometry x="100" y="100" width="160" height="140" as="geometry" />
        </mxCell>
        <mxCell id="cv5TxPR-ClBGW62HtCY0-10" value="ID_Pengguna&#xa;Nama&#xa;Email" style="text;whiteSpace=wrap;html=1;" vertex="1" parent="cv5TxPR-ClBGW62HtCY0-9">
          <mxGeometry x="40" y="40" width="80" height="60" as="geometry" />
        </mxCell>
        <mxCell id="cv5TxPR-ClBGW62HtCY0-11" value="Transaksi" style="shape=swimlane;whiteSpace=wrap;html=1;" vertex="1" parent="1">
          <mxGeometry x="300" y="100" width="160" height="140" as="geometry" />
        </mxCell>
        <mxCell id="cv5TxPR-ClBGW62HtCY0-12" value="ID_Transaksi&#xa;Tanggal&#xa;Jumlah&#xa;ID_Pengguna" style="text;whiteSpace=wrap;html=1;" vertex="1" parent="cv5TxPR-ClBGW62HtCY0-11">
          <mxGeometry x="40" y="40" width="80" height="80" as="geometry" />
        </mxCell>
        <mxCell id="cv5TxPR-ClBGW62HtCY0-13" value="Faktur" style="shape=swimlane;whiteSpace=wrap;html=1;" vertex="1" parent="1">
          <mxGeometry x="100" y="300" width="160" height="140" as="geometry" />
        </mxCell>
        <mxCell id="cv5TxPR-ClBGW62HtCY0-14" value="ID_Faktur&#xa;Tanggal&#xa;Status&#xa;ID_Pengguna" style="text;whiteSpace=wrap;html=1;" vertex="1" parent="cv5TxPR-ClBGW62HtCY0-13">
          <mxGeometry x="40" y="40" width="80" height="80" as="geometry" />
        </mxCell>
        <mxCell id="cv5TxPR-ClBGW62HtCY0-15" value="Rekening Bank" style="shape=swimlane;whiteSpace=wrap;html=1;" vertex="1" parent="1">
          <mxGeometry x="300" y="300" width="160" height="140" as="geometry" />
        </mxCell>
        <mxCell id="cv5TxPR-ClBGW62HtCY0-16" value="ID_Rekening&#xa;Nama Bank&#xa;ID_Faktur" style="text;whiteSpace=wrap;html=1;" vertex="1" parent="cv5TxPR-ClBGW62HtCY0-15">
          <mxGeometry x="40" y="40" width="80" height="80" as="geometry" />
        </mxCell>
        <mxCell id="cv5TxPR-ClBGW62HtCY0-17" edge="1" parent="1" source="cv5TxPR-ClBGW62HtCY0-9" target="cv5TxPR-ClBGW62HtCY0-11">
          <mxGeometry relative="1" as="geometry" />
        </mxCell>
        <mxCell id="cv5TxPR-ClBGW62HtCY0-18" edge="1" parent="1" source="cv5TxPR-ClBGW62HtCY0-9" target="cv5TxPR-ClBGW62HtCY0-13">
          <mxGeometry relative="1" as="geometry" />
        </mxCell>
        <mxCell id="cv5TxPR-ClBGW62HtCY0-19" edge="1" parent="1" source="cv5TxPR-ClBGW62HtCY0-13" target="cv5TxPR-ClBGW62HtCY0-15">
          <mxGeometry relative="1" as="geometry" />
        </mxCell>
      </root>
    </mxGraphModel>
  </diagram>
</mxfile>
